<?xml version="1.0" standalone="no"?>
<!DOCTYPE svg PUBLIC "-//W3C//DTD SVG 20010904//EN"
 "http://www.w3.org/TR/2001/REC-SVG-20010904/DTD/svg10.dtd">
<svg version="1.0" xmlns="http://www.w3.org/2000/svg"
 width="38.000000pt" height="37.000000pt" viewBox="0 0 38.000000 37.000000"
 preserveAspectRatio="xMidYMid meet">
<metadata>
Created by potrace 1.10, written by Peter Selinger 2001-2011
</metadata>
<g transform="translate(0.000000,37.000000) scale(0.100000,-0.100000)"
fill="#000000" stroke="none">
<path d="M40 170 l0 -160 25 0 c24 0 25 2 25 70 l0 70 35 0 c31 0 35 3 35 25
0 24 -2 25 -35 19 l-35 -6 0 52 0 51 43 -3 c37 -3 42 0 45 20 3 21 0 22 -67
22 l-71 0 0 -160z"/>
<path d="M216 308 c-12 -17 -16 -50 -16 -144 0 -104 2 -123 18 -137 19 -17 78
-23 99 -9 15 10 33 57 33 88 0 19 -5 24 -24 24 -21 0 -25 -5 -28 -38 -2 -29
-7 -37 -23 -37 -19 0 -20 7 -20 115 0 108 1 115 20 115 15 0 21 -8 23 -32 3
-27 7 -33 28 -33 27 0 31 20 13 67 -13 35 -25 43 -71 43 -27 0 -41 -6 -52 -22z"/>
</g>
</svg>
